<mxfile host="app.diagrams.net" modified="2021-08-14T07:17:12.214Z" agent="5.0 (Macintosh; Intel Mac OS X 10_15_7) AppleWebKit/605.1.15 (KHTML, like Gecko) Version/14.1.2 Safari/605.1.15" etag="rwQtp7c4LGFNr9eQjylW" version="14.8.6" type="github">
  <diagram id="C5RBs43oDa-KdzZeNtuy" name="Page-1">
    <mxGraphModel dx="1412" dy="786" grid="1" gridSize="10" guides="1" tooltips="1" connect="1" arrows="1" fold="1" page="1" pageScale="1" pageWidth="1169" pageHeight="827" math="0" shadow="0">
      <root>
        <mxCell id="WIyWlLk6GJQsqaUBKTNV-0" />
        <mxCell id="WIyWlLk6GJQsqaUBKTNV-1" parent="WIyWlLk6GJQsqaUBKTNV-0" />
        <mxCell id="slV9n5OIXtw1kdxQu4Zv-1" value="Winners" style="shape=umlActor;verticalLabelPosition=bottom;verticalAlign=top;html=1;outlineConnect=0;" vertex="1" parent="WIyWlLk6GJQsqaUBKTNV-1">
          <mxGeometry x="177" y="130" width="23" height="50" as="geometry" />
        </mxCell>
        <mxCell id="slV9n5OIXtw1kdxQu4Zv-4" value="" style="shape=waypoint;sketch=0;size=6;pointerEvents=1;points=[];fillColor=none;resizable=0;rotatable=0;perimeter=centerPerimeter;snapToPoint=1;" vertex="1" parent="WIyWlLk6GJQsqaUBKTNV-1">
          <mxGeometry x="40" y="140" width="40" height="40" as="geometry" />
        </mxCell>
        <mxCell id="slV9n5OIXtw1kdxQu4Zv-6" value="" style="endArrow=none;html=1;exitX=1.05;exitY=0.6;exitDx=0;exitDy=0;exitPerimeter=0;dashed=1;endFill=0;strokeColor=#0066CC;strokeWidth=5;" edge="1" parent="WIyWlLk6GJQsqaUBKTNV-1" source="slV9n5OIXtw1kdxQu4Zv-4">
          <mxGeometry width="50" height="50" relative="1" as="geometry">
            <mxPoint x="390" y="340" as="sourcePoint" />
            <mxPoint x="160" y="160" as="targetPoint" />
          </mxGeometry>
        </mxCell>
        <mxCell id="slV9n5OIXtw1kdxQu4Zv-7" value="" style="endArrow=none;html=1;exitX=0.45;exitY=0.525;exitDx=0;exitDy=0;exitPerimeter=0;dashed=1;endFill=0;strokeColor=#FF3333;strokeWidth=2;" edge="1" parent="WIyWlLk6GJQsqaUBKTNV-1" source="slV9n5OIXtw1kdxQu4Zv-4">
          <mxGeometry width="50" height="50" relative="1" as="geometry">
            <mxPoint x="70" y="170" as="sourcePoint" />
            <mxPoint x="160" y="320" as="targetPoint" />
          </mxGeometry>
        </mxCell>
        <mxCell id="slV9n5OIXtw1kdxQu4Zv-8" value="Lossers" style="shape=umlActor;verticalLabelPosition=bottom;verticalAlign=top;html=1;outlineConnect=0;" vertex="1" parent="WIyWlLk6GJQsqaUBKTNV-1">
          <mxGeometry x="175" y="310" width="30" height="60" as="geometry" />
        </mxCell>
        <mxCell id="slV9n5OIXtw1kdxQu4Zv-13" value="Join &amp;nbsp;Batch" style="text;html=1;strokeColor=none;fillColor=none;align=center;verticalAlign=middle;whiteSpace=wrap;rounded=0;" vertex="1" parent="WIyWlLk6GJQsqaUBKTNV-1">
          <mxGeometry x="20" y="130" width="70" height="20" as="geometry" />
        </mxCell>
        <mxCell id="slV9n5OIXtw1kdxQu4Zv-16" value="buy at least one&lt;br&gt;training in first 30 days" style="shape=umlActor;verticalLabelPosition=bottom;verticalAlign=top;html=1;outlineConnect=0;" vertex="1" parent="WIyWlLk6GJQsqaUBKTNV-1">
          <mxGeometry x="346" y="134" width="30" height="60" as="geometry" />
        </mxCell>
        <mxCell id="slV9n5OIXtw1kdxQu4Zv-18" value="" style="endArrow=none;html=1;exitX=1.05;exitY=0.6;exitDx=0;exitDy=0;exitPerimeter=0;dashed=1;endFill=0;strokeColor=#0066CC;strokeWidth=4;" edge="1" parent="WIyWlLk6GJQsqaUBKTNV-1">
          <mxGeometry width="50" height="50" relative="1" as="geometry">
            <mxPoint x="230" y="159.5" as="sourcePoint" />
            <mxPoint x="330" y="159.5" as="targetPoint" />
          </mxGeometry>
        </mxCell>
        <mxCell id="slV9n5OIXtw1kdxQu4Zv-19" value="" style="shape=waypoint;sketch=0;size=6;pointerEvents=1;points=[];fillColor=none;resizable=0;rotatable=0;perimeter=centerPerimeter;snapToPoint=1;" vertex="1" parent="WIyWlLk6GJQsqaUBKTNV-1">
          <mxGeometry x="210" y="140" width="40" height="40" as="geometry" />
        </mxCell>
        <mxCell id="slV9n5OIXtw1kdxQu4Zv-20" value="" style="endArrow=none;html=1;exitX=0.45;exitY=0.525;exitDx=0;exitDy=0;exitPerimeter=0;dashed=1;endFill=0;strokeColor=#FF0000;strokeWidth=2;" edge="1" parent="WIyWlLk6GJQsqaUBKTNV-1">
          <mxGeometry width="50" height="50" relative="1" as="geometry">
            <mxPoint x="230" y="160" as="sourcePoint" />
            <mxPoint x="330" y="320" as="targetPoint" />
          </mxGeometry>
        </mxCell>
        <mxCell id="slV9n5OIXtw1kdxQu4Zv-21" value="doesnt purchase &lt;br&gt;a single training&lt;br&gt;&amp;nbsp;in first 30 days" style="shape=umlActor;verticalLabelPosition=bottom;verticalAlign=top;html=1;outlineConnect=0;" vertex="1" parent="WIyWlLk6GJQsqaUBKTNV-1">
          <mxGeometry x="344" y="310" width="30" height="62" as="geometry" />
        </mxCell>
        <mxCell id="slV9n5OIXtw1kdxQu4Zv-22" value="" style="shape=waypoint;sketch=0;size=6;pointerEvents=1;points=[];fillColor=none;resizable=0;rotatable=0;perimeter=centerPerimeter;snapToPoint=1;" vertex="1" parent="WIyWlLk6GJQsqaUBKTNV-1">
          <mxGeometry x="400" y="140" width="40" height="40" as="geometry" />
        </mxCell>
        <mxCell id="slV9n5OIXtw1kdxQu4Zv-23" value="Training purchase" style="text;html=1;strokeColor=none;fillColor=none;align=center;verticalAlign=middle;whiteSpace=wrap;rounded=0;" vertex="1" parent="WIyWlLk6GJQsqaUBKTNV-1">
          <mxGeometry x="210" y="130" width="70" height="20" as="geometry" />
        </mxCell>
        <mxCell id="slV9n5OIXtw1kdxQu4Zv-24" value="Complete&amp;nbsp;&lt;br&gt;training" style="text;html=1;strokeColor=none;fillColor=none;align=center;verticalAlign=middle;whiteSpace=wrap;rounded=0;" vertex="1" parent="WIyWlLk6GJQsqaUBKTNV-1">
          <mxGeometry x="414" y="130" width="70" height="20" as="geometry" />
        </mxCell>
        <mxCell id="slV9n5OIXtw1kdxQu4Zv-25" value="" style="endArrow=none;html=1;dashed=1;endFill=0;exitX=0.575;exitY=0.475;exitDx=0;exitDy=0;exitPerimeter=0;strokeColor=#0066CC;strokeWidth=4;" edge="1" parent="WIyWlLk6GJQsqaUBKTNV-1">
          <mxGeometry width="50" height="50" relative="1" as="geometry">
            <mxPoint x="420" y="160" as="sourcePoint" />
            <mxPoint x="530" y="160" as="targetPoint" />
          </mxGeometry>
        </mxCell>
        <mxCell id="slV9n5OIXtw1kdxQu4Zv-26" style="edgeStyle=none;shape=link;rounded=0;orthogonalLoop=1;jettySize=auto;html=1;dashed=1;endArrow=none;endFill=0;" edge="1" parent="WIyWlLk6GJQsqaUBKTNV-1" source="slV9n5OIXtw1kdxQu4Zv-22" target="slV9n5OIXtw1kdxQu4Zv-22">
          <mxGeometry relative="1" as="geometry" />
        </mxCell>
        <mxCell id="slV9n5OIXtw1kdxQu4Zv-28" value="" style="endArrow=none;html=1;dashed=1;endFill=0;strokeColor=#FF3333;strokeWidth=2;" edge="1" parent="WIyWlLk6GJQsqaUBKTNV-1">
          <mxGeometry width="50" height="50" relative="1" as="geometry">
            <mxPoint x="420" y="160" as="sourcePoint" />
            <mxPoint x="540" y="320" as="targetPoint" />
          </mxGeometry>
        </mxCell>
        <mxCell id="slV9n5OIXtw1kdxQu4Zv-30" value="Completed &lt;br&gt;the training" style="shape=umlActor;verticalLabelPosition=bottom;verticalAlign=top;html=1;outlineConnect=0;" vertex="1" parent="WIyWlLk6GJQsqaUBKTNV-1">
          <mxGeometry x="550" y="130" width="30" height="60" as="geometry" />
        </mxCell>
        <mxCell id="slV9n5OIXtw1kdxQu4Zv-31" value="Not completing &lt;br&gt;the training" style="shape=umlActor;verticalLabelPosition=bottom;verticalAlign=top;html=1;outlineConnect=0;" vertex="1" parent="WIyWlLk6GJQsqaUBKTNV-1">
          <mxGeometry x="550" y="312" width="30" height="60" as="geometry" />
        </mxCell>
        <mxCell id="slV9n5OIXtw1kdxQu4Zv-33" value="doesn&#39;t meet the requirement&lt;br&gt;&amp;nbsp;for receving incentive" style="shape=umlActor;verticalLabelPosition=bottom;verticalAlign=top;html=1;outlineConnect=0;" vertex="1" parent="WIyWlLk6GJQsqaUBKTNV-1">
          <mxGeometry x="890" y="312" width="30" height="60" as="geometry" />
        </mxCell>
        <mxCell id="slV9n5OIXtw1kdxQu4Zv-34" value="check all the requirement &lt;br&gt;for incentive" style="shape=umlActor;verticalLabelPosition=bottom;verticalAlign=top;html=1;outlineConnect=0;" vertex="1" parent="WIyWlLk6GJQsqaUBKTNV-1">
          <mxGeometry x="890" y="130" width="30" height="64" as="geometry" />
        </mxCell>
        <mxCell id="slV9n5OIXtw1kdxQu4Zv-36" value="........." style="text;html=1;strokeColor=none;fillColor=none;align=center;verticalAlign=middle;whiteSpace=wrap;rounded=0;" vertex="1" parent="WIyWlLk6GJQsqaUBKTNV-1">
          <mxGeometry x="640" y="154" width="140" height="20" as="geometry" />
        </mxCell>
        <mxCell id="slV9n5OIXtw1kdxQu4Zv-40" value="" style="shape=waypoint;sketch=0;size=6;pointerEvents=1;points=[];fillColor=none;resizable=0;rotatable=0;perimeter=centerPerimeter;snapToPoint=1;" vertex="1" parent="WIyWlLk6GJQsqaUBKTNV-1">
          <mxGeometry x="740" y="139" width="40" height="40" as="geometry" />
        </mxCell>
        <mxCell id="slV9n5OIXtw1kdxQu4Zv-42" value="" style="endArrow=none;html=1;exitX=1.05;exitY=0.6;exitDx=0;exitDy=0;exitPerimeter=0;dashed=1;endFill=0;strokeColor=#0000FF;strokeWidth=4;" edge="1" parent="WIyWlLk6GJQsqaUBKTNV-1">
          <mxGeometry width="50" height="50" relative="1" as="geometry">
            <mxPoint x="760" y="157.5" as="sourcePoint" />
            <mxPoint x="860" y="157.5" as="targetPoint" />
          </mxGeometry>
        </mxCell>
        <mxCell id="slV9n5OIXtw1kdxQu4Zv-43" value="" style="endArrow=none;html=1;dashed=1;endFill=0;" edge="1" parent="WIyWlLk6GJQsqaUBKTNV-1">
          <mxGeometry width="50" height="50" relative="1" as="geometry">
            <mxPoint x="760" y="160" as="sourcePoint" />
            <mxPoint x="880" y="330" as="targetPoint" />
          </mxGeometry>
        </mxCell>
        <mxCell id="slV9n5OIXtw1kdxQu4Zv-44" value="" style="strokeWidth=2;html=1;shape=mxgraph.flowchart.annotation_2;align=left;labelPosition=right;pointerEvents=1;rotation=90;" vertex="1" parent="WIyWlLk6GJQsqaUBKTNV-1">
          <mxGeometry x="425.5" y="-121.5" width="50" height="411" as="geometry" />
        </mxCell>
        <mxCell id="slV9n5OIXtw1kdxQu4Zv-45" value="Outside Prakerja system (Digital Platforms and training providers)" style="text;html=1;strokeColor=none;fillColor=none;align=center;verticalAlign=middle;whiteSpace=wrap;rounded=0;" vertex="1" parent="WIyWlLk6GJQsqaUBKTNV-1">
          <mxGeometry x="350" y="20" width="200" height="20" as="geometry" />
        </mxCell>
        <mxCell id="slV9n5OIXtw1kdxQu4Zv-46" value="" style="strokeWidth=2;html=1;shape=mxgraph.flowchart.annotation_2;align=left;labelPosition=right;pointerEvents=1;rotation=90;" vertex="1" parent="WIyWlLk6GJQsqaUBKTNV-1">
          <mxGeometry x="75" y="-7" width="50" height="181" as="geometry" />
        </mxCell>
        <mxCell id="slV9n5OIXtw1kdxQu4Zv-47" value="inside Prakerja system" style="text;html=1;strokeColor=none;fillColor=none;align=center;verticalAlign=middle;whiteSpace=wrap;rounded=0;" vertex="1" parent="WIyWlLk6GJQsqaUBKTNV-1">
          <mxGeometry x="15" y="20" width="160" height="20" as="geometry" />
        </mxCell>
        <mxCell id="slV9n5OIXtw1kdxQu4Zv-48" value="" style="strokeWidth=2;html=1;shape=mxgraph.flowchart.annotation_2;align=left;labelPosition=right;pointerEvents=1;rotation=90;" vertex="1" parent="WIyWlLk6GJQsqaUBKTNV-1">
          <mxGeometry x="871.5" y="21.5" width="50" height="125" as="geometry" />
        </mxCell>
        <mxCell id="slV9n5OIXtw1kdxQu4Zv-49" value="" style="endArrow=none;html=1;exitX=1.05;exitY=0.6;exitDx=0;exitDy=0;exitPerimeter=0;dashed=1;endFill=0;entryX=0;entryY=0.5;entryDx=0;entryDy=0;strokeColor=#0000FF;strokeWidth=4;" edge="1" parent="WIyWlLk6GJQsqaUBKTNV-1">
          <mxGeometry width="50" height="50" relative="1" as="geometry">
            <mxPoint x="987" y="154" as="sourcePoint" />
            <mxPoint x="1076" y="154" as="targetPoint" />
          </mxGeometry>
        </mxCell>
        <mxCell id="slV9n5OIXtw1kdxQu4Zv-50" value="inside Prakerja system" style="text;html=1;strokeColor=none;fillColor=none;align=center;verticalAlign=middle;whiteSpace=wrap;rounded=0;" vertex="1" parent="WIyWlLk6GJQsqaUBKTNV-1">
          <mxGeometry x="820" y="20" width="160" height="20" as="geometry" />
        </mxCell>
        <mxCell id="slV9n5OIXtw1kdxQu4Zv-52" value="Get the money&amp;nbsp;" style="rhombus;whiteSpace=wrap;html=1;" vertex="1" parent="WIyWlLk6GJQsqaUBKTNV-1">
          <mxGeometry x="1075" y="115" width="80" height="80" as="geometry" />
        </mxCell>
        <mxCell id="slV9n5OIXtw1kdxQu4Zv-53" value="" style="strokeWidth=2;html=1;shape=mxgraph.flowchart.annotation_2;align=left;labelPosition=right;pointerEvents=1;rotation=90;" vertex="1" parent="WIyWlLk6GJQsqaUBKTNV-1">
          <mxGeometry x="1090" y="43" width="50" height="72" as="geometry" />
        </mxCell>
        <mxCell id="slV9n5OIXtw1kdxQu4Zv-54" value="Outside Prakerja system &lt;br&gt;(financial platform)" style="text;html=1;strokeColor=none;fillColor=none;align=center;verticalAlign=middle;whiteSpace=wrap;rounded=0;" vertex="1" parent="WIyWlLk6GJQsqaUBKTNV-1">
          <mxGeometry x="1015" y="23" width="140" height="20" as="geometry" />
        </mxCell>
      </root>
    </mxGraphModel>
  </diagram>
</mxfile>
